<svg id="Layer_1" data-name="Layer 1" xmlns="http://www.w3.org/2000/svg" viewBox="0 0 182.5 155.63"><defs><style>.cls-1{fill:#dfa97a;}</style></defs><title>daklon</title><path class="cls-1" d="M351.48,110.64h0a15,15,0,0,1,15.42,11.18c5.78,20.18,5.47,57.26.46,78.34a15.58,15.58,0,0,1-15.86,12.29c-.79,0-1.63-.09-2.53-.1a.81.81,0,0,1-.71-1.11c8.38-23.1,4-54.31,3.86-78.86a.58.58,0,0,0-1.14-.22c-4.62,13.37-10.19,31.52-13.54,44.06a2.05,2.05,0,0,1-1.11,1.45h0a1.73,1.73,0,0,1-2.16-.75q-16.81-28.32-33.62-56.65a.76.76,0,0,0-1.42.43c.09,37-1.23,74.66,1.51,111.6a7.35,7.35,0,0,1-6.88,8.06h-.57a7.27,7.27,0,0,1-6.88-6.55c-6.22-47-2.5-96.68-2.44-144.16a2.72,2.72,0,0,1,.92-2.06l.12-.11A11,11,0,0,1,301.55,90c12.07,18.17,23.1,36.92,34,55.92a.75.75,0,0,0,1.38-.16c8.46-24.81,8.59-26.5,10.62-32a5,5,0,0,1,3.89-3" transform="translate(-188.67 -84.74)"/><path class="cls-1" d="M212.25,113.69c2,5.54,2.17,7.23,10.63,32a.75.75,0,0,0,1.38.16c10.94-19,22-37.75,34-55.92A11,11,0,0,1,275,87.49l.12.11a2.68,2.68,0,0,1,.91,2.06c.07,47.48,3.79,97.11-2.43,144.16a7.28,7.28,0,0,1-6.89,6.55h-.56a7.35,7.35,0,0,1-6.88-8.06c2.74-36.94,1.42-74.57,1.51-111.6a.76.76,0,0,0-1.42-.43q-16.87,28.28-33.62,56.65a1.73,1.73,0,0,1-2.16.75h0a2.05,2.05,0,0,1-1.12-1.44c-3.34-12.54-8.91-30.69-13.53-44.06a.58.58,0,0,0-1.14.22c-.14,24.55-4.52,55.76,3.86,78.86a.82.82,0,0,1-.71,1.11c-.9,0-1.74.05-2.53.1a15.58,15.58,0,0,1-15.86-12.29c-5-21.08-5.32-58.16.46-78.34a15,15,0,0,1,15.42-11.18,5,5,0,0,1,3.88,3" transform="translate(-188.67 -84.74)"/></svg>