<svg id="Layer_1" data-name="Layer 1" xmlns="http://www.w3.org/2000/svg" xmlns:xlink="http://www.w3.org/1999/xlink" viewBox="0 0 437.19 157.26"><defs><style>.cls-1,.cls-11,.cls-5,.cls-7,.cls-9{fill:none;}.cls-2{fill:#dfa97a;}.cls-10,.cls-11,.cls-3,.cls-4,.cls-5,.cls-6,.cls-7,.cls-8,.cls-9{isolation:isolate;}.cls-10,.cls-11,.cls-4,.cls-5,.cls-6,.cls-7,.cls-8,.cls-9{font-size:119.83px;font-family:Tempo, Tempo;}.cls-10,.cls-4,.cls-6,.cls-8{fill:#fff;}.cls-4,.cls-5{letter-spacing:-0.03em;}.cls-11,.cls-5,.cls-7,.cls-9{stroke:#000;stroke-miterlimit:10;}.cls-6,.cls-7{letter-spacing:-0.02em;}.cls-8,.cls-9{letter-spacing:-0.03em;}.cls-12{clip-path:url(#clip-path);}</style><clipPath id="clip-path" transform="translate(-66.41 -68.4)"><rect class="cls-1" width="560" height="288"/></clipPath></defs><title>FullFormWhite_and_daklon</title><path class="cls-2" d="M90,97.35c2,5.54,2.16,7.22,10.63,32a.74.74,0,0,0,1.37.15c10.94-19,22-37.74,34-55.91a11,11,0,0,1,15.15-3.53,10.42,10.42,0,0,1,1.51,1.13l.13.11a2.69,2.69,0,0,1,.91,2c.06,47.48,3.78,97.12-2.43,144.16a7.29,7.29,0,0,1-6.89,6.55h-.56a7.35,7.35,0,0,1-6.9-7.79,2.64,2.64,0,0,1,0-.28c2.74-36.93,1.41-74.57,1.5-111.6A.76.76,0,0,0,137,104q-16.87,28.23-33.62,56.61a1.73,1.73,0,0,1-2.16.76h0a2,2,0,0,1-1.11-1.45c-3.34-12.53-8.92-30.69-13.54-44a.58.58,0,0,0-1.14.21c-.14,24.55-4.52,55.76,3.86,78.86a.8.8,0,0,1-.45,1,.58.58,0,0,1-.26.06c-.9,0-1.73.06-2.53.1a15.57,15.57,0,0,1-15.86-12.29c-5-21.08-5.32-58.15.47-78.34A15,15,0,0,1,86.08,94.29,5,5,0,0,1,90,97.35" transform="translate(-66.41 -68.4)"/><g class="cls-3"><text class="cls-4" transform="translate(75.39 120.4)">AN</text><text class="cls-5" transform="translate(75.39 120.4)">AN</text><text class="cls-6" transform="translate(190.91 120.4)">A</text><text class="cls-7" transform="translate(190.91 120.4)">A</text><text class="cls-8" transform="translate(248.19 120.4)">G</text><text class="cls-9" transform="translate(248.19 120.4)">G</text><text class="cls-10" transform="translate(307.14 120.4)">Y</text><text class="cls-11" transform="translate(307.14 120.4)">Y</text></g><g class="cls-12"><path class="cls-2" d="M483.91,95.94h0a15,15,0,0,1,15.41,11.18c5.79,20.19,5.47,57.26.46,78.34a15.57,15.57,0,0,1-15.85,12.29c-.8-.05-1.64-.08-2.54-.1a.81.81,0,0,1-.77-.85,1.1,1.1,0,0,1,.06-.26c8.38-23.1,4-54.31,3.87-78.86a.59.59,0,0,0-1.15-.21c-4.61,13.36-10.19,31.52-13.53,44.05a2.1,2.1,0,0,1-1.11,1.45h0a1.73,1.73,0,0,1-2.17-.75L433,105.57a.75.75,0,0,0-1-.29.77.77,0,0,0-.39.72c.09,37-1.23,74.66,1.51,111.6a7.35,7.35,0,0,1-6.59,8l-.29,0h-.56a7.29,7.29,0,0,1-6.89-6.55c-6.21-47-2.5-96.68-2.43-144.16a2.69,2.69,0,0,1,.91-2.06l.13-.11a11,11,0,0,1,15.53,1A10.76,10.76,0,0,1,434,75.27c12,18.17,23.07,36.92,34,55.92a.75.75,0,0,0,1.38-.16c8.46-24.81,8.59-26.49,10.63-32a5,5,0,0,1,3.89-3" transform="translate(-66.41 -68.4)"/></g></svg>