<svg id="Layer_1" data-name="Layer 1" xmlns="http://www.w3.org/2000/svg" viewBox="0 0 431.67 156.09"><defs><style>.cls-1{fill:#dfa97a;}.cls-2{font-size:105.39px;fill:#010101;font-family:Tempo, Tempo;}.cls-3{letter-spacing:-0.03em;}.cls-4{letter-spacing:-0.02em;}</style></defs><title>FullFormBlack_and_daklon</title><path class="cls-1" d="M90.63,99.79c2,5.54,2.16,7.23,10.63,32a.75.75,0,0,0,1.37.16c10.94-19,22-37.75,34-55.92a11,11,0,0,1,16.66-2.48l.13.11a2.72,2.72,0,0,1,.91,2.06c.06,47.47,3.78,97.11-2.44,144.16a7.28,7.28,0,0,1-6.88,6.55h-.56a7.34,7.34,0,0,1-6.88-8.06c2.73-36.94,1.41-74.57,1.5-111.6a.76.76,0,0,0-1.42-.44Q120.82,134.65,104.07,163a1.73,1.73,0,0,1-2.16.75h0a2,2,0,0,1-1.11-1.44c-3.35-12.54-8.92-30.7-13.54-44.06a.58.58,0,0,0-1.14.22C86,143,81.58,174.24,90,197.34a.8.8,0,0,1-.71,1.1c-.9,0-1.73.06-2.53.11a15.59,15.59,0,0,1-15.86-12.29c-5-21.08-5.32-58.16.47-78.35A15,15,0,0,1,86.74,96.74a5,5,0,0,1,3.89,3.05" transform="translate(-67.05 -70.38)"/><text class="cls-2" transform="translate(80.09 117.29) scale(1.08 1)"><tspan class="cls-3">AN</tspan><tspan class="cls-4" x="101.6" y="0">A</tspan><tspan class="cls-3" x="151.98" y="0">G</tspan><tspan x="203.83" y="0">Y</tspan></text><path class="cls-1" d="M479,96.27h0a15,15,0,0,1,15.41,11.18c5.79,20.19,5.48,57.27.47,78.34A15.57,15.57,0,0,1,479,198.08c-.8,0-1.63-.08-2.53-.1a.81.81,0,0,1-.71-1.11c8.38-23.09,4-54.31,3.86-78.85a.58.58,0,0,0-1.14-.22c-4.62,13.36-10.19,31.52-13.54,44.06a2,2,0,0,1-1.11,1.44h0a1.74,1.74,0,0,1-2.16-.75q-16.81-28.34-33.62-56.66a.76.76,0,0,0-1.42.44c.09,37-1.23,74.66,1.5,111.6a7.35,7.35,0,0,1-6.88,8.06h-.56a7.26,7.26,0,0,1-6.88-6.55c-6.22-47-2.5-96.68-2.44-144.16a2.71,2.71,0,0,1,.91-2.05l.13-.11a11,11,0,0,1,16.66,2.48c12.07,18.17,23.1,36.92,34,55.92a.75.75,0,0,0,1.38-.16c8.46-24.81,8.59-26.5,10.62-32A5,5,0,0,1,479,96.27" transform="translate(-67.05 -70.38)"/></svg>