<svg id="Layer_1" data-name="Layer 1" xmlns="http://www.w3.org/2000/svg" xmlns:xlink="http://www.w3.org/1999/xlink" viewBox="0 0 612 792"><defs><style>.cls-1,.cls-8{fill:none;}.cls-2{fill:#dfa97a;}.cls-3{font-size:119.83px;fill:#fff;stroke:#000;font-family:Tempo, Tempo;letter-spacing:-0.03em;}.cls-3,.cls-8{stroke-miterlimit:10;}.cls-4{letter-spacing:-0.02em;}.cls-5{letter-spacing:0em;}.cls-6{clip-path:url(#clip-path);}.cls-7{fill:#231f20;}.cls-8{stroke:#fff;}</style><clipPath id="clip-path" transform="translate(6.71 502.19)"><rect class="cls-1" x="-6.71" y="-502.19" width="612" height="792"/></clipPath></defs><title>mainLogo</title><path class="cls-2" d="M92,99.16c2,5.54,2.16,7.22,10.63,32a.74.74,0,0,0,1.37.15c10.94-19,22-37.74,34-55.91A11,11,0,0,1,154.66,73l.13.11a2.71,2.71,0,0,1,.91,2.05c.06,47.48,3.78,97.12-2.43,144.16a7.29,7.29,0,0,1-6.89,6.55h-.56a7.36,7.36,0,0,1-6.88-8.07c2.74-36.93,1.41-74.57,1.5-111.6a.76.76,0,0,0-1.42-.43Q122.14,134,105.4,162.38a1.73,1.73,0,0,1-2.16.76h0a2,2,0,0,1-1.11-1.45c-3.34-12.53-8.92-30.69-13.54-44.05a.58.58,0,0,0-1.14.21c-.14,24.55-4.52,55.76,3.86,78.86a.81.81,0,0,1-.71,1.11c-.9,0-1.73.06-2.53.1a15.58,15.58,0,0,1-15.86-12.29c-5-21.08-5.32-58.15.47-78.34A15,15,0,0,1,88.07,96.1,5,5,0,0,1,92,99.16" transform="translate(6.71 502.19)"/><rect class="cls-1" width="612" height="792"/><text class="cls-3" transform="translate(150.5 692.8)">AN<tspan class="cls-4" x="115.52" y="0">A</tspan><tspan x="172.8" y="0">G</tspan><tspan class="cls-5" x="231.75" y="0">Y</tspan></text><g class="cls-6"><path class="cls-2" d="M485.9,97.75h0a15,15,0,0,1,15.41,11.18c5.79,20.19,5.47,57.26.46,78.34a15.57,15.57,0,0,1-15.85,12.29c-.8-.05-1.64-.08-2.54-.1a.81.81,0,0,1-.71-1.11c8.38-23.1,4-54.31,3.87-78.86a.59.59,0,0,0-1.15-.21c-4.61,13.36-10.19,31.52-13.53,44.05a2.08,2.08,0,0,1-1.11,1.45h0a1.73,1.73,0,0,1-2.17-.75q-16.8-28.32-33.62-56.65a.76.76,0,0,0-1.42.43c.09,37-1.23,74.66,1.51,111.6a7.35,7.35,0,0,1-6.88,8.06h-.56a7.29,7.29,0,0,1-6.89-6.55c-6.21-47-2.5-96.68-2.43-144.16a2.72,2.72,0,0,1,.91-2.06l.13-.11A11,11,0,0,1,436,77.08C448,95.25,459.07,114,470,133a.75.75,0,0,0,1.38-.16c8.46-24.81,8.59-26.49,10.63-32a5,5,0,0,1,3.89-3" transform="translate(6.71 502.19)"/><path class="cls-7" d="M297.11-368.83a17.06,17.06,0,0,1-17.06,17.06A17.06,17.06,0,0,1,263-368.83a17.06,17.06,0,0,1,17.07-17.06,17.06,17.06,0,0,1,17.06,17.06" transform="translate(6.71 502.19)"/><circle class="cls-8" cx="280.05" cy="-368.83" r="17.06" transform="matrix(0.38, -0.92, 0.92, 0.38, 520.34, 533.23)"/></g></svg>